<svg width="640" height="640" viewBox="0 0 640 640" fill="none" xmlns="http://www.w3.org/2000/svg">
<g clip-path="url(#clip0)">
<path d="M319.173 638.346C495.447 638.346 638.346 495.447 638.346 319.173C638.346 142.899 495.447 0 319.173 0C142.899 0 0 142.899 0 319.173C0 495.447 142.899 638.346 319.173 638.346Z" fill="black"/>
<path d="M539.448 640C594.981 640 640 594.981 640 539.448C640 483.915 594.981 438.896 539.448 438.896C483.915 438.896 438.896 483.915 438.896 539.448C438.896 594.981 483.915 640 539.448 640Z" fill="black" stroke="white" stroke-width="10"/>
<path d="M590.328 512.64C596.151 519.138 599.431 527.493 599.431 536.18V579.082H580.288V535.649C580.221 527.095 573.125 520.133 564.491 520.133C564.022 520.133 563.487 520.199 562.884 520.199C555.187 520.995 548.694 528.223 548.694 536.047V579.016H529.618V535.716C529.551 527.162 522.523 520.133 513.888 520.133C513.42 520.133 512.884 520.199 512.282 520.199C504.584 520.995 498.092 528.223 498.092 536.114V579.016H479.417V535.583C479.417 516.619 495.013 501.235 514.089 501.235C523.661 501.235 532.764 505.213 539.323 512.043C545.883 505.147 555.053 501.235 564.625 501.235C565.696 501.235 566.633 501.301 567.704 501.368C576.405 502.163 584.437 506.142 590.328 512.64Z" fill="white"/>
<path fill-rule="evenodd" clip-rule="evenodd" d="M518.44 212.157C518.588 212.702 518.663 213.264 518.665 213.828V301.554C518.665 302.68 518.366 303.786 517.799 304.76C517.232 305.734 516.416 306.542 515.435 307.102L441.441 349.494V433.518C441.441 435.804 440.22 437.915 438.227 439.067L283.772 527.544C283.418 527.744 283.033 527.872 282.647 528.008C282.503 528.055 282.366 528.143 282.213 528.183C281.134 528.466 279.999 528.466 278.919 528.183C278.742 528.135 278.581 528.039 278.413 527.976C278.059 527.848 277.69 527.736 277.352 527.544L122.929 439.067C121.948 438.506 121.133 437.698 120.566 436.723C119.999 435.749 119.7 434.644 119.699 433.518V170.341C119.699 169.765 119.779 169.206 119.924 168.662C119.972 168.478 120.085 168.31 120.149 168.126C120.27 167.79 120.382 167.447 120.559 167.135C120.679 166.927 120.856 166.759 121.001 166.567C121.185 166.311 121.354 166.047 121.571 165.824C121.756 165.64 121.997 165.504 122.206 165.344C122.439 165.152 122.648 164.944 122.913 164.792H122.921L200.137 120.554C201.114 119.994 202.223 119.699 203.351 119.699C204.479 119.699 205.587 119.994 206.565 120.554L283.78 164.792H283.796C284.053 164.952 284.27 165.152 284.503 165.336C284.712 165.496 284.945 165.64 285.13 165.816C285.355 166.047 285.516 166.311 285.708 166.567C285.845 166.759 286.03 166.927 286.142 167.135C286.327 167.455 286.432 167.79 286.56 168.126C286.624 168.31 286.737 168.478 286.785 168.67C286.933 169.215 287.009 169.777 287.01 170.341V334.719L351.354 297.852V213.82C351.354 213.26 351.434 212.693 351.579 212.157C351.635 211.965 351.739 211.797 351.804 211.613C351.932 211.277 352.045 210.934 352.221 210.622C352.342 210.414 352.519 210.246 352.655 210.054C352.848 209.798 353.009 209.534 353.234 209.311C353.419 209.127 353.652 208.991 353.861 208.831C354.102 208.639 354.311 208.431 354.568 208.279H354.576L431.799 164.041C432.777 163.48 433.885 163.185 435.013 163.185C436.141 163.185 437.25 163.48 438.227 164.041L515.443 208.279C515.716 208.439 515.925 208.639 516.166 208.823C516.367 208.983 516.6 209.127 516.785 209.303C517.01 209.534 517.17 209.798 517.363 210.054C517.508 210.246 517.684 210.414 517.797 210.622C517.982 210.934 518.086 211.277 518.215 211.613C518.287 211.797 518.392 211.965 518.44 212.157ZM505.793 297.852V224.902L478.771 240.381L441.441 261.768V334.719L505.801 297.852H505.793ZM428.577 429.816V356.818L391.858 377.686L287.002 437.236V510.921L428.577 429.816ZM132.571 181.415V429.816L274.13 510.913V437.244L200.177 395.596L200.153 395.58L200.121 395.564C199.871 395.42 199.663 395.212 199.43 395.036C199.229 394.876 198.996 394.748 198.819 394.572L198.803 394.548C198.594 394.348 198.449 394.1 198.272 393.877C198.112 393.661 197.919 393.477 197.79 393.253L197.782 393.229C197.638 392.989 197.549 392.701 197.445 392.429C197.34 392.19 197.204 391.966 197.14 391.71V391.702C197.059 391.398 197.043 391.078 197.011 390.766C196.979 390.526 196.915 390.287 196.915 390.047V390.031V218.281L159.592 196.886L132.571 181.423V181.415ZM203.359 133.49L139.023 170.341L203.343 207.192L267.67 170.333L203.343 133.49H203.359ZM236.816 363.47L274.138 342.09V181.415L247.117 196.894L209.787 218.281V378.957L236.816 363.47ZM435.013 176.977L370.686 213.828L435.013 250.679L499.333 213.82L435.013 176.977ZM428.577 261.768L391.247 240.381L364.226 224.902V297.852L401.548 319.231L428.577 334.719V261.768ZM280.558 426.162L374.912 372.561L422.077 345.776L357.798 308.949L283.788 351.349L216.335 389.991L280.558 426.162Z" fill="white"/>
</g>
<defs>
<clipPath id="clip0">
<rect width="640" height="640" fill="white"/>
</clipPath>
</defs>
</svg>
